<?xml version="1.0" encoding="utf-8"?><svg version="1.1" id="Layer_1" xmlns="http://www.w3.org/2000/svg" xmlns:xlink="http://www.w3.org/1999/xlink" x="0px" y="0px" viewBox="0 0 122.88 82.97" style="enable-background:new 0 0 122.88 82.97" xml:space="preserve"><style type="text/css">.st0{fill-rule:evenodd;clip-rule:evenodd;}</style><g><path class="st0" d="M89.9,51.59c-0.49,0.56-0.99,1.15-1.51,1.74c-4.87,5.65-9.81,11.38-17.3,13.94C67.21,68.6,63.1,69,58.44,68.72 l0.6-3.3c4.09,0.21,7.67-0.16,10.99-1.29c6.63-2.27,11.28-7.66,15.85-12.97c0.35-0.4,0.69-0.8,1.05-1.22 c-2.16-1.3-4.26-2.76-6.36-4.21l-0.67-0.46c-5.01,24.55-38.02,17.74-35.64-4.45v0c-4.38,1.95-8.6,4.62-12.96,7.38 c-2.41,1.53-4.87,3.08-7.41,4.56c-0.47,0.27-1.04,0.55-1.65,0.86c-1.74,0.86-3.98,1.96-4.17,2.96c-0.13,0.68,3.22,1.31,5.22,1.69 l0.56,0.11l-2.42,3.38c-2.85-0.73-7.2-2.83-6.63-5.8c0.51-2.62,3.57-4.13,5.96-5.31c0.56-0.28,1.07-0.53,1.46-0.75 c2.52-1.46,4.94-2.99,7.31-4.49c6.6-4.18,12.89-8.16,20.09-9.98c4.06-1.03,7.51-1.47,10.73-1.4c3.25,0.07,6.23,0.66,9.31,1.7 c4.36,1.47,8.55,4.36,12.79,7.29c2.76,1.91,5.54,3.83,8.32,5.32c2.95,1.58,6.51,1.84,7.73,1.93c0.52,0.04,0.83,0.06,1.19,0.27 c0.79,0.47,1.05,1.49,0.59,2.27c-0.41,0.7-1.27,0.99-2,0.71l0,0.05c0,0,0,0,0,0C96.98,53.47,93.31,53.21,89.9,51.59L89.9,51.59 L89.9,51.59z M44.94,65.07l2.17,4.52l6.66-6.99L48.09,76l-2.26-4.02l-6.47,7.3L44.94,65.07L44.94,65.07L44.94,65.07z M24.27,66.98 l4.35,2.95l2.08-10.08l2.42,15.31l-4.31-2.36l-1.8,10.16L24.27,66.98L24.27,66.98L24.27,66.98z M17.12,51.06 c-0.72,0.57-1.77,0.44-2.33-0.28c-0.57-0.72-0.44-1.77,0.28-2.33C22.12,42.91,29,37.51,36.52,33.38c7.6-4.18,15.8-7.03,25.37-7.38 c10.54-0.38,17.03,4.92,23.27,10.02c3.26,2.67,6.45,5.27,10.04,6.82c0.52,0.23,1.03,0.4,1.52,0.54c0.49,0.14,1.01,0.24,1.53,0.32 c0.91,0.13,1.54,0.98,1.4,1.89c-0.13,0.91-0.98,1.54-1.89,1.4c-0.63-0.09-1.28-0.23-1.94-0.41c-0.67-0.18-1.32-0.41-1.95-0.68 c-4.02-1.73-7.39-4.49-10.83-7.3c-5.77-4.72-11.76-9.61-21.04-9.28c-8.97,0.33-16.7,3.02-23.89,6.98 C30.85,40.29,24.07,45.6,17.12,51.06L17.12,51.06L17.12,51.06z M0,45.2C77.3,6.65,59.8-1.01,122.88,42.83l-22.2-24.05 C73.18-5.73,65.44-3.64,40.09,10.17C29.28,16.06,9.19,22.4,4.68,33.6L0,45.2L0,45.2L0,45.2z M57.65,73.03 c1.75,0.03,3.47-0.06,5.15-0.22c11.52-1.09,21.53-7.07,29.72-18.98c0.52-0.75,1.55-0.94,2.31-0.42c0.75,0.52,0.94,1.55,0.42,2.31 C84.06,71.96,73.53,75.81,57.13,75.83L57.65,73.03L57.65,73.03z M63.79,36.06c-0.44-0.06-0.89-0.11-1.34-0.15 C62.9,35.9,63.35,35.95,63.79,36.06L63.79,36.06z M67.55,38.31c-0.88-0.83-1.73-1.44-2.56-1.83c-0.81-0.34-1.71-0.52-2.64-0.52 c-0.45,0-0.88,0.04-1.31,0.12c-0.85,0.2-1.72,0.58-2.63,1.1c-1.81,1.25-3,3.34-3,5.71c0,3.83,3.11,6.94,6.94,6.94 c3.83,0,6.94-3.11,6.94-6.94C69.28,41.14,68.63,39.54,67.55,38.31L67.55,38.31L67.55,38.31z M98.01,53.39 c-0.29-0.18,0.25,0.15,0.27,0.18l0-0.05C98.19,53.48,98.1,53.44,98.01,53.39L98.01,53.39z"/></g></svg>